<?xml version="1.0" standalone="no"?>
<!DOCTYPE svg PUBLIC "-//W3C//DTD SVG 20010904//EN"
 "http://www.w3.org/TR/2001/REC-SVG-20010904/DTD/svg10.dtd">
<svg version="1.0" xmlns="http://www.w3.org/2000/svg"
 width="880.000000pt" height="880.000000pt" viewBox="0 0 880.000000 880.000000"
 preserveAspectRatio="xMidYMid meet">

<g transform="translate(0.000000,880.000000) scale(0.100000,-0.100000)"
fill="#000000" stroke="none">
<path d="M866 8404 c-221 -54 -399 -235 -452 -460 -12 -55 -14 -518 -12 -3556
l3 -3493 32 -80 c66 -161 197 -292 358 -358 l80 -32 3493 -3 c3873 -2 3553 -8
3697 64 138 68 257 206 306 355 l24 74 0 3515 0 3515 -27 67 c-71 179 -192
301 -366 372 l-77 31 -3500 2 c-2997 1 -3508 -1 -3559 -13z m1994 -2899 l0
-455 -535 0 -535 0 0 455 0 455 535 0 535 0 0 -455z m3229 -801 c374 -56 676
-223 835 -463 141 -212 211 -474 236 -881 5 -93 10 -666 10 -1312 l0 -1148
-540 0 -540 0 0 1120 c0 750 -4 1153 -11 1222 -33 304 -140 513 -305 596 -99
49 -182 66 -334 65 -372 -1 -599 -145 -689 -437 -53 -171 -54 -203 -58 -1428
l-4 -1138 -530 0 -529 0 0 1845 0 1845 463 -2 462 -3 3 -247 c1 -137 6 -248
11 -248 5 0 30 29 55 64 214 300 626 514 1096 570 58 7 266 -4 369 -20z
m-3229 -2044 l0 -1760 -535 0 -535 0 0 1760 0 1760 535 0 535 0 0 -1760z"/>
</g>
</svg>
